<?xml version="1.0" standalone="no"?><!DOCTYPE svg PUBLIC "-//W3C//DTD SVG 1.1//EN" "http://www.w3.org/Graphics/SVG/1.1/DTD/svg11.dtd"><svg t="1621797046193" class="icon" viewBox="0 0 1024 1024" version="1.1" xmlns="http://www.w3.org/2000/svg" p-id="6455" xmlns:xlink="http://www.w3.org/1999/xlink" width="200" height="200"><defs><style type="text/css"></style></defs><path d="M666.737778 235.804444c-10.714074-5.30963-23.798519-0.853333-29.108148 9.860741-5.30963 10.808889-0.853333 23.798519 9.860741 29.108148 105.623704 52.148148 171.235556 157.582222 171.235556 275.342222 0 169.14963-137.576296 306.725926-306.725926 306.725926-169.14963 0-306.725926-137.576296-306.725926-306.725926 0-114.725926 63.241481-219.022222 165.072593-272.118519 10.619259-5.594074 14.791111-18.678519 9.197037-29.392593-5.594074-10.619259-18.773333-14.696296-29.392593-9.197037-116.242963 60.681481-188.491852 179.674074-188.491852 310.708148 0 193.137778 157.108148 350.245926 350.245926 350.245926 193.137778 0 350.245926-157.108148 350.245926-350.245926C862.245926 415.668148 787.342222 295.253333 666.737778 235.804444z" p-id="6456"></path><path d="M512 539.875556c10.42963 0 18.962963-9.765926 18.962963-21.712593L530.962963 145.351111c0-12.041481-8.533333-21.712593-18.962963-21.712593-10.42963 0-18.962963 9.765926-18.962963 21.712593l0 372.717037C493.037037 530.10963 501.57037 539.875556 512 539.875556z" p-id="6457"></path></svg>